<mxfile host="app.diagrams.net" modified="2021-06-17T09:48:18.327Z" agent="5.0 (Macintosh; Intel Mac OS X 10_12_6) AppleWebKit/537.36 (KHTML, like Gecko) Chrome/91.0.4472.106 Safari/537.36" etag="d7T4-M0NAQFfPHTET8Wg" version="14.7.8" type="github">
  <diagram id="GwmPb7Ibz57wvic6_5tl" name="第 1 页">
    <mxGraphModel dx="946" dy="646" grid="1" gridSize="10" guides="1" tooltips="1" connect="1" arrows="1" fold="1" page="1" pageScale="1" pageWidth="827" pageHeight="1169" math="0" shadow="0">
      <root>
        <mxCell id="0" />
        <mxCell id="1" parent="0" />
        <mxCell id="Sdfr6Uw5pjo_RGLUvj7r-1" value="登陆" style="swimlane;childLayout=stackLayout;horizontal=1;fillColor=none;horizontalStack=1;resizeParent=1;resizeParentMax=0;resizeLast=0;collapsible=0;strokeColor=none;stackBorder=10;stackSpacing=-12;resizable=1;align=center;points=[];fontColor=#000000;" vertex="1" parent="1">
          <mxGeometry x="30" y="240" width="371" height="100" as="geometry" />
        </mxCell>
        <mxCell id="Sdfr6Uw5pjo_RGLUvj7r-2" value="登陆处理&#xa;deviceId&#xa;客户端队列" style="shape=step;perimeter=stepPerimeter;fixedSize=1;points=[];fillColor=#d5e8d4;strokeColor=#82b366;" vertex="1" parent="Sdfr6Uw5pjo_RGLUvj7r-1">
          <mxGeometry x="10" y="33" width="125" height="57" as="geometry" />
        </mxCell>
        <mxCell id="Sdfr6Uw5pjo_RGLUvj7r-3" value="tag处理&#xa;tag&#xa;内部队列" style="shape=step;perimeter=stepPerimeter;fixedSize=1;points=[];fillColor=#b0e3e6;strokeColor=#0e8088;" vertex="1" parent="Sdfr6Uw5pjo_RGLUvj7r-1">
          <mxGeometry x="123" y="33" width="125" height="57" as="geometry" />
        </mxCell>
        <mxCell id="Sdfr6Uw5pjo_RGLUvj7r-4" value="发送消息&#xa;routingKey&#xa;内部队列" style="shape=step;perimeter=stepPerimeter;fixedSize=1;points=[];fillColor=#f8cecc;strokeColor=#b85450;" vertex="1" parent="Sdfr6Uw5pjo_RGLUvj7r-1">
          <mxGeometry x="236" y="33" width="125" height="57" as="geometry" />
        </mxCell>
        <mxCell id="Sdfr6Uw5pjo_RGLUvj7r-5" value="ack" style="swimlane;childLayout=stackLayout;horizontal=1;fillColor=none;horizontalStack=1;resizeParent=1;resizeParentMax=0;resizeLast=0;collapsible=0;strokeColor=none;stackBorder=10;stackSpacing=-12;resizable=1;align=center;points=[];fontColor=#000000;" vertex="1" parent="1">
          <mxGeometry x="400" y="240" width="258" height="100" as="geometry" />
        </mxCell>
        <mxCell id="Sdfr6Uw5pjo_RGLUvj7r-6" value="ac处理&#xa;deviceId&#xa;客户端队列" style="shape=step;perimeter=stepPerimeter;fixedSize=1;points=[];fillColor=#d5e8d4;strokeColor=#82b366;" vertex="1" parent="Sdfr6Uw5pjo_RGLUvj7r-5">
          <mxGeometry x="10" y="33" width="125" height="57" as="geometry" />
        </mxCell>
        <mxCell id="Sdfr6Uw5pjo_RGLUvj7r-8" value="发送消息&#xa;routingKey&#xa;内部队列" style="shape=step;perimeter=stepPerimeter;fixedSize=1;points=[];fillColor=#f8cecc;strokeColor=#b85450;" vertex="1" parent="Sdfr6Uw5pjo_RGLUvj7r-5">
          <mxGeometry x="123" y="33" width="125" height="57" as="geometry" />
        </mxCell>
        <mxCell id="Sdfr6Uw5pjo_RGLUvj7r-12" value="单客户端推送" style="swimlane;childLayout=stackLayout;horizontal=1;fillColor=none;horizontalStack=1;resizeParent=1;resizeParentMax=0;resizeLast=0;collapsible=0;strokeColor=none;stackBorder=10;stackSpacing=-12;resizable=1;align=center;points=[];fontColor=#000000;" vertex="1" parent="1">
          <mxGeometry x="20" y="420" width="258" height="100" as="geometry" />
        </mxCell>
        <mxCell id="Sdfr6Uw5pjo_RGLUvj7r-13" value="单客户端推送&#xa;业务方自定义&#xa;业务消息推送队列" style="shape=step;perimeter=stepPerimeter;fixedSize=1;points=[];fillColor=#dae8fc;strokeColor=#6c8ebf;" vertex="1" parent="Sdfr6Uw5pjo_RGLUvj7r-12">
          <mxGeometry x="10" y="33" width="125" height="57" as="geometry" />
        </mxCell>
        <mxCell id="Sdfr6Uw5pjo_RGLUvj7r-15" value="发送消息&#xa;routingKey&#xa;内部队列" style="shape=step;perimeter=stepPerimeter;fixedSize=1;points=[];fillColor=#f8cecc;strokeColor=#b85450;" vertex="1" parent="Sdfr6Uw5pjo_RGLUvj7r-12">
          <mxGeometry x="123" y="33" width="125" height="57" as="geometry" />
        </mxCell>
        <mxCell id="Sdfr6Uw5pjo_RGLUvj7r-16" value="多客户端批量推送" style="swimlane;childLayout=stackLayout;horizontal=1;fillColor=none;horizontalStack=1;resizeParent=1;resizeParentMax=0;resizeLast=0;collapsible=0;strokeColor=none;stackBorder=10;stackSpacing=-12;resizable=1;align=center;points=[];fontColor=#000000;" vertex="1" parent="1">
          <mxGeometry x="300" y="420" width="258" height="100" as="geometry" />
        </mxCell>
        <mxCell id="Sdfr6Uw5pjo_RGLUvj7r-17" value="单客户端推送&#xa;业务方自定义&#xa;业务消息推送队列" style="shape=step;perimeter=stepPerimeter;fixedSize=1;points=[];fillColor=#dae8fc;strokeColor=#6c8ebf;" vertex="1" parent="Sdfr6Uw5pjo_RGLUvj7r-16">
          <mxGeometry x="10" y="33" width="125" height="57" as="geometry" />
        </mxCell>
        <mxCell id="Sdfr6Uw5pjo_RGLUvj7r-18" value="发送消息&#xa;routingKey&#xa;内部队列" style="shape=step;perimeter=stepPerimeter;fixedSize=1;points=[];fillColor=#f8cecc;strokeColor=#b85450;" vertex="1" parent="Sdfr6Uw5pjo_RGLUvj7r-16">
          <mxGeometry x="123" y="33" width="125" height="57" as="geometry" />
        </mxCell>
        <mxCell id="Sdfr6Uw5pjo_RGLUvj7r-19" value="推送消息check" style="swimlane;childLayout=stackLayout;horizontal=1;fillColor=none;horizontalStack=1;resizeParent=1;resizeParentMax=0;resizeLast=0;collapsible=0;strokeColor=none;stackBorder=10;stackSpacing=-12;resizable=1;align=center;points=[];fontColor=#000000;" vertex="1" parent="1">
          <mxGeometry x="550" y="420" width="258" height="100" as="geometry" />
        </mxCell>
        <mxCell id="Sdfr6Uw5pjo_RGLUvj7r-22" value="check消息是否ack&#xa;routingKey&#xa;内部队列" style="shape=step;perimeter=stepPerimeter;fixedSize=1;points=[];fillColor=#e1d5e7;strokeColor=#9673a6;" vertex="1" parent="Sdfr6Uw5pjo_RGLUvj7r-19">
          <mxGeometry x="10" y="33" width="125" height="57" as="geometry" />
        </mxCell>
        <mxCell id="Sdfr6Uw5pjo_RGLUvj7r-23" value="check消息是否ack&#xa;routingKey&#xa;内部队列" style="shape=step;perimeter=stepPerimeter;fixedSize=1;points=[];fillColor=#e1d5e7;strokeColor=#9673a6;" vertex="1" parent="Sdfr6Uw5pjo_RGLUvj7r-19">
          <mxGeometry x="123" y="33" width="125" height="57" as="geometry" />
        </mxCell>
        <mxCell id="Sdfr6Uw5pjo_RGLUvj7r-24" value="单客户端消息推送处理" style="swimlane;childLayout=stackLayout;horizontal=1;fillColor=none;horizontalStack=1;resizeParent=1;resizeParentMax=0;resizeLast=0;collapsible=0;strokeColor=none;stackBorder=10;stackSpacing=-12;resizable=1;align=center;points=[];fontColor=#000000;" vertex="1" parent="1">
          <mxGeometry y="570" width="371" height="100" as="geometry" />
        </mxCell>
        <mxCell id="Sdfr6Uw5pjo_RGLUvj7r-25" value="调用网关推送接口&#xa;routingKey&#xa;内部队列" style="shape=step;perimeter=stepPerimeter;fixedSize=1;points=[];fillColor=#f8cecc;strokeColor=#b85450;" vertex="1" parent="Sdfr6Uw5pjo_RGLUvj7r-24">
          <mxGeometry x="10" y="33" width="125" height="57" as="geometry" />
        </mxCell>
        <mxCell id="Sdfr6Uw5pjo_RGLUvj7r-26" value="调用网关推送接口&#xa;routingKey&#xa;内部队列" style="shape=step;perimeter=stepPerimeter;fixedSize=1;points=[];fillColor=#f8cecc;strokeColor=#b85450;" vertex="1" parent="Sdfr6Uw5pjo_RGLUvj7r-24">
          <mxGeometry x="123" y="33" width="125" height="57" as="geometry" />
        </mxCell>
        <mxCell id="Sdfr6Uw5pjo_RGLUvj7r-30" value="check消息是否ack&#xa;routingKey&#xa;内部队列" style="shape=step;perimeter=stepPerimeter;fixedSize=1;points=[];fillColor=#e1d5e7;strokeColor=#9673a6;" vertex="1" parent="Sdfr6Uw5pjo_RGLUvj7r-24">
          <mxGeometry x="236" y="33" width="125" height="57" as="geometry" />
        </mxCell>
        <mxCell id="Sdfr6Uw5pjo_RGLUvj7r-27" value="多客户端批量推送处理" style="swimlane;childLayout=stackLayout;horizontal=1;fillColor=none;horizontalStack=1;resizeParent=1;resizeParentMax=0;resizeLast=0;collapsible=0;strokeColor=none;stackBorder=10;stackSpacing=-12;resizable=1;align=center;points=[];fontColor=#000000;" vertex="1" parent="1">
          <mxGeometry x="470" y="570" width="258" height="100" as="geometry" />
        </mxCell>
        <mxCell id="Sdfr6Uw5pjo_RGLUvj7r-28" value="调用网关推送接口&#xa;routingKey&#xa;内部队列" style="shape=step;perimeter=stepPerimeter;fixedSize=1;points=[];fillColor=#f8cecc;strokeColor=#b85450;" vertex="1" parent="Sdfr6Uw5pjo_RGLUvj7r-27">
          <mxGeometry x="10" y="33" width="125" height="57" as="geometry" />
        </mxCell>
        <mxCell id="Sdfr6Uw5pjo_RGLUvj7r-29" value="check消息是否ack&#xa;routingKey&#xa;内部队列" style="shape=step;perimeter=stepPerimeter;fixedSize=1;points=[];fillColor=#e1d5e7;strokeColor=#9673a6;" vertex="1" parent="Sdfr6Uw5pjo_RGLUvj7r-27">
          <mxGeometry x="123" y="33" width="125" height="57" as="geometry" />
        </mxCell>
        <mxCell id="Sdfr6Uw5pjo_RGLUvj7r-34" value="操作描述&#xa;分区顺序key&#xa;队列类型" style="shape=step;perimeter=stepPerimeter;fixedSize=1;points=[];" vertex="1" parent="1">
          <mxGeometry x="50" y="40" width="125" height="57" as="geometry" />
        </mxCell>
        <mxCell id="Sdfr6Uw5pjo_RGLUvj7r-35" value="客户端队列" style="shape=step;perimeter=stepPerimeter;fixedSize=1;points=[];fillColor=#d5e8d4;strokeColor=#82b366;" vertex="1" parent="1">
          <mxGeometry x="180" y="40" width="125" height="57" as="geometry" />
        </mxCell>
        <mxCell id="Sdfr6Uw5pjo_RGLUvj7r-36" value="业务端消息列队" style="shape=step;perimeter=stepPerimeter;fixedSize=1;points=[];fillColor=#dae8fc;strokeColor=#6c8ebf;" vertex="1" parent="1">
          <mxGeometry x="310" y="40" width="125" height="57" as="geometry" />
        </mxCell>
        <mxCell id="Sdfr6Uw5pjo_RGLUvj7r-37" value="内部队列&#xa;tag处理" style="shape=step;perimeter=stepPerimeter;fixedSize=1;points=[];fillColor=#b0e3e6;strokeColor=#0e8088;" vertex="1" parent="1">
          <mxGeometry x="433" y="40" width="125" height="57" as="geometry" />
        </mxCell>
        <mxCell id="Sdfr6Uw5pjo_RGLUvj7r-38" value="内部队列&#xa;check消息" style="shape=step;perimeter=stepPerimeter;fixedSize=1;points=[];fillColor=#e1d5e7;strokeColor=#9673a6;" vertex="1" parent="1">
          <mxGeometry x="560" y="40" width="125" height="57" as="geometry" />
        </mxCell>
        <mxCell id="Sdfr6Uw5pjo_RGLUvj7r-39" value="内部队列&#xa;调用消息推送" style="shape=step;perimeter=stepPerimeter;fixedSize=1;points=[];fillColor=#f8cecc;strokeColor=#b85450;" vertex="1" parent="1">
          <mxGeometry x="683" y="40" width="125" height="57" as="geometry" />
        </mxCell>
      </root>
    </mxGraphModel>
  </diagram>
</mxfile>
